<svg
    xmlns="http://www.w3.org/2000/svg"
    viewBox="0 0 74 74"
    id="vector">
    <g id="group_30">
        <g id="group"/>
        <g id="group_1"/>
        <g id="group_2"/>
        <g id="group_3"/>
        <g id="group_4"/>
        <g id="group_5"/>
        <g id="group_6"/>
        <g id="group_7"/>
        <g id="group_8"/>
        <g id="group_9"/>
        <g id="group_10"/>
        <g id="group_11"/>
        <g id="group_12"/>
        <g id="group_13"/>
        <g id="group_14"/>
        <g id="group_15"/>
        <g id="group_16"/>
        <g id="group_17"/>
        <g id="group_18"/>
        <g id="group_19"/>
        <g id="group_20"/>
        <g id="group_21"/>
        <g id="group_22"/>
        <g id="group_23"/>
        <g id="group_24"/>
        <g id="group_25"/>
        <g id="group_26"/>
        <g id="group_27"/>
        <g id="group_28"/>
        <g id="group_29"/>
    </g>
    <g id="group_31">
        <path
            id="path"
            d="M 60.8 47.38 L 56.92 47.38 C 56.655 47.38 56.4 47.275 56.213 47.087 C 56.025 46.9 55.92 46.645 55.92 46.38 C 55.92 46.115 56.025 45.86 56.213 45.673 C 56.4 45.485 56.655 45.38 56.92 45.38 L 60.8 45.38 C 63.24 45.38 65.583 44.41 67.309 42.684 C 69.035 40.958 70.005 38.615 70.005 36.175 C 70.005 33.735 69.035 31.392 67.309 29.666 C 65.583 27.94 63.24 26.97 60.8 26.97 L 60.05 26.97 C 59.864 26.971 59.682 26.92 59.524 26.823 C 59.365 26.726 59.237 26.586 59.154 26.421 C 59.07 26.255 59.034 26.069 59.05 25.884 C 59.087 25.452 59.116 25.04 59.116 24.6 C 59.115 21.657 58.354 18.763 56.906 16.2 C 56.8 16.016 56.755 15.803 56.778 15.593 C 56.801 15.382 56.891 15.183 57.034 15.027 C 57.177 14.87 57.366 14.763 57.574 14.721 C 57.782 14.679 57.998 14.704 58.19 14.792 C 58.383 14.881 58.543 15.029 58.646 15.214 C 60.267 18.077 61.119 21.311 61.12 24.6 C 61.12 24.727 61.12 24.851 61.114 24.975 C 64.078 25.026 66.903 26.251 68.966 28.379 C 71.029 30.508 72.166 33.37 72.124 36.334 C 72.083 39.298 70.867 42.127 68.745 44.197 C 66.623 46.267 63.764 47.412 60.8 47.38 Z M 39.729 7.68 C 39.476 7.679 39.232 7.582 39.048 7.408 C 38.864 7.234 38.752 6.997 38.736 6.745 C 38.72 6.492 38.8 6.242 38.96 6.047 C 39.12 5.851 39.349 5.723 39.6 5.689 C 40.661 5.553 41.731 5.506 42.8 5.549 C 43.067 5.559 43.319 5.674 43.502 5.868 C 43.685 6.062 43.783 6.321 43.777 6.588 C 43.772 6.762 43.721 6.932 43.63 7.08 C 43.538 7.228 43.409 7.349 43.256 7.432 C 43.102 7.514 42.93 7.555 42.756 7.549 C 42.496 7.539 42.27 7.53 42.045 7.53 C 41.313 7.529 40.582 7.576 39.856 7.671 C 39.814 7.677 39.771 7.68 39.729 7.68 Z M 14.73 47.38 L 13.18 47.38 C 10.249 47.394 7.427 46.257 5.323 44.217 C 3.22 42.176 1.999 39.389 1.924 36.459 C 1.85 33.529 2.928 30.683 4.925 28.538 C 6.922 26.393 9.683 25.115 12.611 24.98 C 13.275 21.916 14.966 19.169 17.401 17.195 C 19.837 15.22 22.875 14.135 26.01 14.12 L 26.132 14.12 C 27.393 12.211 28.985 10.541 30.832 9.191 C 31.021 9.045 31.256 8.972 31.495 8.985 C 31.733 8.997 31.959 9.094 32.132 9.259 C 32.26 9.379 32.353 9.53 32.403 9.698 C 32.454 9.865 32.459 10.043 32.418 10.214 C 32.377 10.384 32.293 10.54 32.172 10.667 L 32.162 10.678 C 32.12 10.722 32.074 10.761 32.025 10.797 C 30.217 12.116 28.683 13.773 27.507 15.676 C 27.413 15.827 27.281 15.95 27.124 16.033 C 26.967 16.115 26.79 16.155 26.613 16.147 L 26.37 16.134 C 26.247 16.126 26.125 16.118 26.007 16.118 C 23.204 16.131 20.496 17.146 18.375 18.978 C 16.254 20.811 14.857 23.342 14.436 26.113 C 14.401 26.35 14.282 26.568 14.101 26.724 C 13.919 26.881 13.687 26.968 13.447 26.968 L 13.177 26.968 C 10.737 26.968 8.394 27.938 6.668 29.664 C 4.942 31.39 3.972 33.733 3.972 36.173 C 3.972 38.613 4.942 40.956 6.668 42.682 C 8.394 44.408 10.737 45.378 13.177 45.378 L 14.727 45.378 C 14.992 45.378 15.247 45.483 15.434 45.671 C 15.622 45.858 15.727 46.113 15.727 46.378 C 15.727 46.643 15.622 46.898 15.434 47.085 C 15.247 47.273 14.992 47.378 14.727 47.378 Z M 52.269 10.7 C 52.066 10.7 51.868 10.639 51.701 10.523 C 50.906 9.978 50.066 9.502 49.19 9.1 C 48.95 8.988 48.764 8.785 48.673 8.537 C 48.582 8.288 48.594 8.014 48.705 7.773 C 48.816 7.533 49.018 7.347 49.266 7.255 C 49.515 7.163 49.789 7.174 50.03 7.284 C 51.01 7.737 51.949 8.272 52.838 8.884 C 53.014 9.005 53.146 9.179 53.215 9.381 C 53.285 9.583 53.288 9.801 53.225 10.005 C 53.161 10.209 53.034 10.387 52.862 10.513 C 52.69 10.639 52.482 10.707 52.269 10.707 Z"
            fill="#69e781"
            stroke-width="1"/>
        <path
            id="path_1"
            d="M 38.927 68.472 L 32.727 68.472 C 32.489 68.472 32.258 68.387 32.077 68.232 C 31.896 68.077 31.776 67.862 31.739 67.627 L 31.262 64.584 C 29.473 64.138 27.761 63.428 26.182 62.477 L 23.689 64.292 C 23.497 64.432 23.26 64.499 23.023 64.481 C 22.786 64.463 22.563 64.36 22.394 64.192 L 18.011 59.81 C 17.842 59.641 17.738 59.417 17.72 59.179 C 17.702 58.94 17.769 58.703 17.911 58.51 L 19.728 56.017 C 18.776 54.438 18.066 52.725 17.62 50.936 L 14.577 50.46 C 14.341 50.423 14.127 50.303 13.971 50.122 C 13.816 49.941 13.731 49.71 13.731 49.472 L 13.731 43.272 C 13.731 43.034 13.816 42.803 13.971 42.623 C 14.126 42.442 14.341 42.322 14.576 42.285 L 17.62 41.807 C 18.066 40.018 18.777 38.306 19.728 36.727 L 17.911 34.234 C 17.769 34.041 17.702 33.804 17.72 33.565 C 17.738 33.327 17.842 33.103 18.011 32.934 L 22.4 28.561 C 22.569 28.393 22.792 28.29 23.029 28.272 C 23.266 28.254 23.503 28.321 23.695 28.461 L 26.188 30.278 C 27.767 29.326 29.48 28.616 31.269 28.17 L 31.745 25.127 C 31.782 24.892 31.902 24.677 32.083 24.522 C 32.264 24.367 32.495 24.282 32.733 24.282 L 38.933 24.282 C 39.171 24.282 39.402 24.367 39.583 24.522 C 39.764 24.677 39.884 24.892 39.921 25.127 L 40.399 28.17 C 42.187 28.616 43.899 29.327 45.478 30.278 L 47.971 28.461 C 48.164 28.319 48.401 28.252 48.64 28.27 C 48.878 28.288 49.102 28.392 49.271 28.561 L 53.654 32.943 C 53.823 33.112 53.927 33.336 53.945 33.574 C 53.963 33.813 53.896 34.05 53.754 34.243 L 51.938 36.736 C 52.889 38.316 53.599 40.028 54.045 41.817 L 57.087 42.294 C 57.322 42.331 57.537 42.45 57.692 42.631 C 57.847 42.812 57.933 43.043 57.933 43.281 L 57.933 49.481 C 57.933 49.719 57.848 49.95 57.693 50.131 C 57.538 50.312 57.323 50.432 57.088 50.469 L 54.045 50.947 C 53.599 52.735 52.889 54.447 51.938 56.026 L 53.754 58.519 C 53.896 58.712 53.963 58.949 53.945 59.188 C 53.927 59.426 53.823 59.65 53.654 59.819 L 49.271 64.201 C 49.102 64.37 48.878 64.474 48.64 64.492 C 48.401 64.51 48.164 64.443 47.971 64.301 L 45.478 62.486 C 43.899 63.436 42.186 64.146 40.398 64.593 L 39.921 67.636 C 39.882 67.871 39.76 68.084 39.578 68.237 C 39.396 68.391 39.165 68.474 38.927 68.472 Z M 33.585 66.472 L 38.071 66.472 L 38.521 63.606 C 38.553 63.406 38.644 63.22 38.784 63.073 C 38.924 62.926 39.105 62.825 39.304 62.783 C 41.328 62.356 43.255 61.555 44.985 60.421 C 45.184 60.291 45.422 60.236 45.658 60.266 C 45.894 60.296 46.111 60.409 46.271 60.584 L 48.451 62.173 L 51.625 59 L 50 56.77 C 49.841 56.609 49.741 56.399 49.719 56.174 C 49.696 55.949 49.751 55.723 49.874 55.533 C 51.008 53.802 51.809 51.875 52.235 49.85 C 52.277 49.651 52.378 49.47 52.526 49.33 C 52.673 49.191 52.859 49.099 53.06 49.068 L 55.924 48.62 L 55.924 44.132 L 53.059 43.682 C 52.859 43.651 52.673 43.559 52.525 43.42 C 52.378 43.28 52.277 43.099 52.235 42.901 C 51.809 40.876 51.008 38.949 49.874 37.219 C 49.745 37.021 49.689 36.783 49.719 36.548 C 49.748 36.313 49.86 36.096 50.034 35.936 L 51.625 33.752 L 48.451 30.58 L 46.224 32.2 C 46.063 32.36 45.853 32.46 45.627 32.483 C 45.402 32.507 45.175 32.452 44.985 32.328 C 43.253 31.195 41.325 30.394 39.3 29.969 C 39.102 29.927 38.921 29.826 38.781 29.679 C 38.641 29.532 38.55 29.346 38.518 29.146 L 38.069 26.28 L 33.585 26.28 L 33.135 29.146 C 33.103 29.346 33.012 29.532 32.872 29.679 C 32.732 29.826 32.551 29.927 32.353 29.969 C 30.328 30.395 28.401 31.196 26.671 32.331 C 26.473 32.46 26.235 32.515 26 32.486 C 25.765 32.456 25.548 32.344 25.388 32.17 L 23.205 30.58 L 20.031 33.752 L 21.656 35.982 C 21.815 36.143 21.915 36.353 21.937 36.578 C 21.96 36.803 21.905 37.029 21.782 37.219 C 20.649 38.949 19.848 40.876 19.421 42.9 C 19.379 43.099 19.278 43.28 19.131 43.419 C 18.984 43.559 18.797 43.651 18.597 43.682 L 15.731 44.131 L 15.731 48.62 L 18.598 49.07 C 18.798 49.102 18.984 49.193 19.131 49.333 C 19.278 49.473 19.379 49.654 19.421 49.852 C 19.848 51.876 20.649 53.803 21.782 55.533 C 21.911 55.731 21.967 55.969 21.937 56.204 C 21.908 56.439 21.796 56.656 21.622 56.816 L 20.031 59 L 23.205 62.172 L 25.434 60.548 C 25.595 60.389 25.805 60.29 26.03 60.267 C 26.255 60.244 26.481 60.299 26.671 60.422 C 28.402 61.556 30.329 62.357 32.354 62.783 C 32.553 62.825 32.734 62.926 32.874 63.073 C 33.014 63.22 33.106 63.406 33.137 63.607 Z M 56.924 49.472 Z"
            fill="#69e781"
            stroke-width="1"/>
        <path
            id="path_2"
            d="M 35.828 59.548 C 32.336 59.548 28.983 58.159 26.514 55.69 C 24.045 53.221 22.656 49.868 22.656 46.376 C 22.656 42.884 24.045 39.531 26.514 37.062 C 28.983 34.593 32.336 33.204 35.828 33.204 C 39.32 33.204 42.673 34.593 45.142 37.062 C 47.611 39.531 49 42.884 49 46.376 C 48.996 49.867 47.606 53.217 45.138 55.686 C 42.669 58.154 39.319 59.544 35.828 59.548 Z M 35.828 35.204 C 32.866 35.204 30.023 36.382 27.928 38.476 C 25.834 40.571 24.656 43.414 24.656 46.376 C 24.656 49.338 25.834 52.181 27.928 54.276 C 30.023 56.37 32.866 57.548 35.828 57.548 C 38.79 57.548 41.633 56.37 43.728 54.276 C 45.822 52.181 47 49.338 47 46.376 C 46.998 43.414 45.819 40.572 43.725 38.477 C 41.632 36.383 38.79 35.203 35.828 35.2 Z"
            fill="#69e781"
            stroke-width="1"/>
    </g>
</svg>
